<?xml version="1.0" encoding="UTF-8" standalone="no"?>
<!DOCTYPE svg PUBLIC "-//W3C//DTD SVG 1.1//EN" "http://www.w3.org/Graphics/SVG/1.1/DTD/svg11.dtd">
<svg width="100%" height="100%" viewBox="0 0 1093 217" version="1.1" xmlns="http://www.w3.org/2000/svg" xmlns:xlink="http://www.w3.org/1999/xlink" xml:space="preserve" xmlns:serif="http://www.serif.com/" style="fill-rule:evenodd;clip-rule:evenodd;stroke-linejoin:round;stroke-miterlimit:2;">
    <g transform="matrix(4.16667,0,0,4.16667,0,0)">
        <g id="Layer_3">
            <g>
                <path d="M11.59,16.3L11.59,26.52L0,26.52L0,15.86C0,12.6 0.72,9.94 2.16,7.9C3.6,5.86 5.53,4.36 7.96,3.4C10.38,2.44 13.06,1.96 15.99,1.96C19.54,1.96 22.16,2.43 23.84,3.36C25.52,4.3 26.36,5.89 26.36,8.15C26.36,9.11 26.15,9.97 25.75,10.74C25.34,11.51 24.9,12.08 24.42,12.47C23.51,12.23 22.56,12.03 21.58,11.86C20.6,11.69 19.46,11.61 18.16,11.61C16.1,11.61 14.49,11.96 13.34,12.65C12.19,13.35 11.61,14.56 11.61,16.29L11.59,16.3ZM0,24.73L12.24,24.73L12.24,50.79C11.71,50.93 10.96,51.08 9.97,51.22C8.99,51.36 7.92,51.44 6.77,51.44C4.42,51.44 2.7,51.03 1.62,50.22C0.54,49.4 0,47.89 0,45.68L0,24.73ZM9.79,27.97L9.79,18.61L23.4,18.61C23.69,19.09 23.96,19.74 24.23,20.55C24.49,21.37 24.63,22.25 24.63,23.21C24.63,24.89 24.26,26.1 23.51,26.85C22.77,27.6 21.77,27.97 20.52,27.97L9.79,27.97Z" style="fill:white;fill-rule:nonzero;"/>
                <path d="M41.9,14.79C47.13,14.79 51.32,15.86 54.46,17.99C57.6,20.13 59.18,23.45 59.18,27.96L59.18,44.09C59.18,45.34 58.83,46.36 58.14,47.15C57.44,47.94 56.62,48.63 55.66,49.2C54.12,50.11 52.25,50.81 50.04,51.29C47.83,51.77 45.31,52.01 42.48,52.01C37.44,52.01 33.4,51.04 30.35,49.09C27.3,47.15 25.78,44.21 25.78,40.27C25.78,36.96 26.78,34.41 28.77,32.64C30.76,30.86 33.8,29.76 37.88,29.33L47.31,28.32L47.31,27.82C47.31,26.43 46.7,25.43 45.47,24.83C44.25,24.23 42.48,23.93 40.18,23.93C38.4,23.93 36.64,24.12 34.89,24.51C33.14,24.89 31.57,25.37 30.17,25.95C29.55,25.52 29.02,24.86 28.59,23.97C28.16,23.08 27.94,22.16 27.94,21.2C27.94,18.9 29.16,17.26 31.61,16.3C33,15.77 34.65,15.39 36.54,15.15C38.44,14.91 40.22,14.79 41.9,14.79ZM42.48,43.09C43.3,43.09 44.2,43.01 45.18,42.84C46.16,42.67 46.9,42.44 47.38,42.16L47.38,36.4L42.2,36.83C40.86,36.93 39.75,37.21 38.89,37.69C38.03,38.17 37.59,38.89 37.59,39.85C37.59,40.81 37.96,41.59 38.71,42.19C39.45,42.79 40.71,43.09 42.49,43.09L42.48,43.09Z" style="fill:white;fill-rule:nonzero;"/>
                <path d="M77.04,26.17L77.04,34.38L64.8,34.38L64.8,24.3C64.8,22.91 65.17,21.7 65.92,20.66C66.66,19.63 67.64,18.73 68.84,17.96C70.52,16.95 72.49,16.18 74.74,15.66C77,15.13 79.32,14.87 81.72,14.87C86.95,14.87 89.57,16.72 89.57,20.41C89.57,21.27 89.45,22.08 89.21,22.82C88.97,23.56 88.68,24.2 88.35,24.73C87.87,24.63 87.29,24.56 86.62,24.51C85.95,24.46 85.2,24.44 84.39,24.44C83.19,24.44 81.92,24.58 80.57,24.87C79.23,25.16 78.05,25.59 77.04,26.17ZM64.8,31.86L77.04,31.86L77.04,50.8C76.51,50.94 75.76,51.09 74.77,51.23C73.79,51.37 72.72,51.45 71.57,51.45C69.22,51.45 67.5,51.04 66.42,50.23C65.34,49.41 64.8,47.9 64.8,45.69L64.8,31.86Z" style="fill:white;fill-rule:nonzero;"/>
                <path d="M124.63,26.82L124.63,34.96L112.39,34.96L112.39,28.48C112.39,27.04 111.97,26 111.13,25.35C110.29,24.7 109.27,24.38 108.07,24.38C107.16,24.38 106.37,24.51 105.69,24.78C105.02,25.04 104.47,25.3 104.03,25.54L104.03,34.97L91.79,34.97L91.79,24.03C91.79,22.73 92.07,21.68 92.62,20.86C93.17,20.04 93.93,19.3 94.89,18.63C96.52,17.48 98.55,16.55 100.97,15.86C103.39,15.16 105.93,14.82 108.57,14.82C110.83,14.82 112.99,15.17 115.05,15.86C117.11,16.56 118.99,17.67 120.67,19.21C121.05,19.55 121.45,19.88 121.86,20.22C122.27,20.56 122.57,20.92 122.76,21.3C123.29,22.12 123.73,23 124.09,23.96C124.45,24.92 124.63,25.88 124.63,26.84L124.63,26.82ZM91.8,31.86L104.04,31.86L104.04,50.8C103.51,50.94 102.76,51.09 101.77,51.23C100.79,51.37 99.72,51.45 98.57,51.45C96.22,51.45 94.5,51.04 93.42,50.23C92.34,49.41 91.8,47.9 91.8,45.69L91.8,31.86ZM112.39,31.86L124.63,31.86L124.63,50.8C124.1,50.94 123.34,51.09 122.36,51.23C121.38,51.37 120.31,51.45 119.16,51.45C116.81,51.45 115.09,51.04 114.01,50.23C112.93,49.41 112.39,47.9 112.39,45.69L112.39,31.86ZM145.22,28.11L145.22,34.95L132.98,34.95L132.98,28.47C132.98,27.03 132.6,25.99 131.83,25.34C131.06,24.69 130.05,24.37 128.81,24.37C127.9,24.37 127.03,24.55 126.22,24.91C125.4,25.27 124.73,25.67 124.2,26.1L117.5,19.26C119.18,18.06 121.04,17.02 123.08,16.13C125.12,15.24 127.65,14.8 130.68,14.8C133.13,14.8 135.47,15.23 137.7,16.1C139.93,16.96 141.74,18.37 143.14,20.31C144.53,22.25 145.23,24.86 145.23,28.12L145.22,28.11ZM132.98,31.86L145.22,31.86L145.22,50.8C144.69,50.94 143.94,51.09 142.95,51.23C141.97,51.37 140.9,51.45 139.75,51.45C137.4,51.45 135.68,51.04 134.6,50.23C133.52,49.41 132.98,47.9 132.98,45.69L132.98,31.86Z" style="fill:white;fill-rule:nonzero;"/>
                <path d="M163.51,38.26L151.27,38.26L151.27,3.92C151.8,3.78 152.55,3.63 153.54,3.49C154.52,3.35 155.59,3.27 156.74,3.27C159.14,3.27 160.87,3.67 161.92,4.46C162.98,5.25 163.5,6.78 163.5,9.03L163.5,38.26L163.51,38.26ZM151.27,31.86L163.51,31.86L163.51,50.8C162.98,50.94 162.22,51.09 161.24,51.23C160.26,51.37 159.19,51.45 158.04,51.45C155.69,51.45 153.97,51.04 152.89,50.23C151.81,49.41 151.27,47.9 151.27,45.69L151.27,31.86Z" style="fill:white;fill-rule:nonzero;"/>
                <path d="M169.77,31.86L169.77,45.68C169.77,47.89 170.31,49.4 171.39,50.22C172.47,51.03 174.19,51.44 176.54,51.44C177.69,51.44 178.76,51.37 179.75,51.22C180.73,51.08 181.49,50.94 182.01,50.79L182.01,31.86L169.77,31.86ZM180.43,16.92C179.37,16.12 177.65,15.73 175.25,15.73C174.09,15.73 173.03,15.8 172.04,15.94C171.06,16.09 170.3,16.23 169.77,16.38L169.77,38.26L182.01,38.26L182.01,21.49C182.01,19.23 181.49,17.71 180.43,16.92Z" style="fill:white;fill-rule:nonzero;"/>
                <path d="M222.33,28.33L222.33,34.95L210.09,34.95L210.09,28.69C210.09,27.2 209.65,26.11 208.76,25.41C207.87,24.71 206.71,24.37 205.27,24.37C204.31,24.37 203.41,24.49 202.57,24.73C201.73,24.97 200.93,25.28 200.16,25.67L200.16,34.96L187.92,34.96L187.92,24.02C187.92,22.72 188.2,21.67 188.75,20.85C189.3,20.03 190.06,19.29 191.02,18.62C192.65,17.47 194.72,16.54 197.21,15.85C199.71,15.15 202.44,14.81 205.42,14.81C210.84,14.81 215.02,16 217.95,18.37C220.88,20.75 222.34,24.07 222.34,28.34L222.33,28.33ZM187.92,31.86L200.16,31.86L200.16,50.8C199.63,50.94 198.88,51.09 197.89,51.23C196.91,51.37 195.84,51.45 194.69,51.45C192.34,51.45 190.62,51.04 189.54,50.23C188.46,49.41 187.92,47.9 187.92,45.69L187.92,31.86ZM210.09,31.86L222.33,31.86L222.33,50.8C221.8,50.94 221.05,51.09 220.06,51.23C219.08,51.37 218.01,51.45 216.86,51.45C214.51,51.45 212.79,51.04 211.71,50.23C210.63,49.41 210.09,47.9 210.09,45.69L210.09,31.86Z" style="fill:white;fill-rule:nonzero;"/>
                <path d="M240.41,38.26L228.17,38.26L228.17,3.92C228.7,3.78 229.45,3.63 230.44,3.49C231.42,3.35 232.49,3.27 233.64,3.27C236.04,3.27 237.77,3.67 238.82,4.46C239.88,5.25 240.4,6.78 240.4,9.03L240.4,38.26L240.41,38.26ZM228.17,31.86L240.41,31.86L240.41,50.8C239.88,50.94 239.13,51.09 238.14,51.23C237.16,51.37 236.09,51.45 234.94,51.45C232.59,51.45 230.87,51.04 229.79,50.23C228.71,49.41 228.17,47.9 228.17,45.69L228.17,31.86ZM245.52,37.47L236.59,31.93L252.79,15.37C255.29,15.37 257.29,15.92 258.8,17.03C260.31,18.13 261.07,19.53 261.07,21.21C261.07,22.65 260.57,23.92 259.56,25.03C258.55,26.13 256.99,27.6 254.88,29.42L245.52,37.48L245.52,37.47ZM237.17,33.66L247.03,29.41L262.22,44.53C262.03,46.74 261.38,48.45 260.28,49.68C259.18,50.9 257.59,51.52 255.53,51.52C254.04,51.52 252.69,51.15 251.46,50.4C250.24,49.66 248.93,48.4 247.54,46.62L237.17,33.66Z" style="fill:white;fill-rule:nonzero;"/>
                <path d="M187.84,1.93C187.95,8.04 182.95,13.08 176.66,13.2C174.95,13.23 173.33,12.9 171.86,12.27C171.82,11.94 171.8,11.61 171.8,11.27C171.69,5.16 176.69,0.12 182.98,0C184.69,-0.03 186.31,0.3 187.78,0.93C187.82,1.26 187.84,1.59 187.84,1.93Z" style="fill:rgb(243,196,48);fill-rule:nonzero;"/>
            </g>
        </g>
    </g>
</svg>
